<svg xmlns="http://www.w3.org/2000/svg" viewBox="0 100 1000 990"><mask id="a"><path d="M1000 0H0v718.31h179.2c38.38 142.38 167.45 247.1 320.8 247.1s282.42-104.72 320.8-247.1H1000Z" fill="#fff"/></mask><g mask="url(#a)"><circle cx="500" cy="630.16" r="332.442" fill="#f25f4c"/><path d="M610 758.72c90.76 0 72 114.24 72.87 241.28H610Z" fill="#fdd2b2"/><path d="M632.74 831.87 610 870l11.38 130h31.76c.77-180.27-20.4-168.13-20.4-168.13Z" fill="#f3ab98"/><path d="M233.25 500c0-147.32 119.43-266.75 266.75-266.75S766.75 352.68 766.75 500a266.22 266.22 0 0 1-98.65 207.12q-8.21 6.68-16.94 12.69C591 758 515 758 446.39 751.89c-6.66-1-13.3-2.26-19.89-3.71-26.33-5.8-51.82-14.75-75.37-27.8q-8.73-5.38-16.93-11.62a199.59 199.59 0 0 1-15.8-13.38q-7.14-6.63-13.79-13.78A265.86 265.86 0 0 1 233.25 500Z" fill="#fdd2b2"/><path d="M269.61 634.48c.7 1.2 1.39 2.4 2.11 3.58.43.72.88 1.42 1.33 2.14.66 1.07 1.32 2.14 2 3.19.48.76 1 1.5 1.46 2.24.66 1 1.32 2 2 3 .51.76 1 1.52 1.56 2.28.66 1 1.32 1.92 2 2.88.54.77 1.1 1.53 1.65 2.3s1.34 1.85 2 2.77 1.15 1.53 1.73 2.29 1.37 1.8 2.07 2.7 1.19 1.51 1.79 2.26 1.41 1.76 2.12 2.63 1.23 1.49 1.85 2.23 1.44 1.72 2.17 2.57 1.27 1.47 1.91 2.2l2.22 2.5c.65.73 1.31 1.44 2 2.16.86.94 1.73 1.87 2.6 2.79l1.21 1.28c1.29 1.34 2.59 2.68 3.91 4l.26.27c1.29 1.28 2.6 2.55 3.91 3.81l1.58 1.5c.95.89 1.9 1.78 2.86 2.66l1.16 1.06c1 .94 2.09 1.86 3.14 2.78q4.9 4.27 10 8.19 8.19 6.24 16.93 11.62c23.55 13 49 22 75.37 27.8 6.59 1.45 13.23 2.7 19.89 3.71 42.1 3.75 87 5.18 129.28-3.08C508.45 729 185.59 612.74 388.8 257.48c-2.72 1.25-5.4 2.54-8.06 3.88l-.59.29c-1.22.61-2.44 1.24-3.65 1.88l-1 .53c-3.76 2-7.48 4.07-11.13 6.23l-.9.53c-1.16.69-2.31 1.39-3.46 2.1l-.87.54q-5.36 3.35-10.55 6.93l-1.08.75c-1.09.76-2.16 1.52-3.23 2.29l-.66.47q-3.27 2.39-6.46 4.84l-.62.48c-1 .78-2 1.58-3 2.39l-1.17.94c-1 .81-2 1.62-3 2.45-2.11 1.75-4.19 3.55-6.24 5.37l-1.14 1-2.69 2.45L318 305q-4.28 4-8.37 8.17l-1.38 1.41c-.79.82-1.58 1.64-2.36 2.47-.46.49-.92 1-1.37 1.48q-2.06 2.2-4.06 4.46c-.45.51-.91 1-1.36 1.54-.71.81-1.41 1.63-2.11 2.45l-1.51 1.79c-.68.81-1.36 1.62-2 2.44-.54.66-1.08 1.33-1.61 2-1.07 1.33-2.12 2.66-3.16 4-.54.7-1.08 1.4-1.61 2.11s-1.2 1.59-1.79 2.4-1.07 1.45-1.59 2.18-1.13 1.55-1.68 2.33q-1.42 2-2.8 4.05c-.5.73-1 1.48-1.49 2.22s-1.1 1.66-1.64 2.5l-1.49 2.31-1.68 2.71c-.43.69-.86 1.38-1.28 2.07-.89 1.46-1.75 2.93-2.61 4.4l-1.22 2.16c-.54.95-1.08 1.91-1.61 2.87-.4.73-.8 1.46-1.19 2.19-.64 1.19-1.27 2.39-1.9 3.59l-1.2 2.34c-.64 1.28-1.28 2.55-1.91 3.84-.33.69-.67 1.39-1 2.09-.52 1.09-1 2.19-1.53 3.29-.31.66-.61 1.32-.91 2q-1.11 2.47-2.17 5c-.22.52-.43 1.05-.65 1.57-.53 1.27-1.05 2.54-1.56 3.82-.27.67-.53 1.34-.79 2-.5 1.26-1 2.53-1.45 3.8-.21.55-.42 1.1-.62 1.65q-.94 2.63-1.85 5.26l-.56 1.7q-.66 2-1.29 4l-.6 1.91c-.47 1.54-.93 3.08-1.37 4.63-.1.33-.2.66-.29 1q-.78 2.76-1.5 5.54c-.16.59-.3 1.19-.45 1.78-.35 1.39-.69 2.78-1 4.18l-.42 1.75c-.43 1.9-.85 3.8-1.24 5.71l-.15.77q-.51 2.55-1 5.1c-.11.61-.21 1.21-.32 1.82-.26 1.49-.51 3-.74 4.5-.08.51-.17 1-.24 1.52-.3 1.95-.57 3.91-.83 5.88l-.15 1.3c-.2 1.59-.38 3.19-.55 4.79-.06.6-.13 1.2-.19 1.81-.16 1.68-.31 3.37-.45 5.06 0 .35-.06.69-.08 1q-.22 3-.39 6.05c0 .53 0 1.07-.07 1.6q-.1 2.36-.18 4.71v1.77c0 2.05-.08 4.11-.08 6.17v.1c0 2.22 0 4.42.08 6.62 0 .76.06 1.52.08 2.28.05 1.47.1 2.94.17 4.41 0 .89.11 1.77.16 2.66.08 1.33.15 2.66.25 4 .07 1 .16 1.89.24 2.83.11 1.26.21 2.52.34 3.77.09 1 .21 1.94.31 2.91.14 1.21.27 2.43.42 3.64.12 1 .26 2 .39 2.95.16 1.18.32 2.37.5 3.55.15 1 .31 2 .47 3 .18 1.16.37 2.33.57 3.49.18 1 .36 2 .55 3 .21 1.15.43 2.3.65 3.44s.41 2 .62 3c.24 1.14.48 2.27.74 3.4s.44 2 .68 2.93c.26 1.13.54 2.25.82 3.36s.49 1.95.74 2.91c.3 1.12.6 2.23.91 3.34.26 1 .53 1.92.81 2.87.32 1.11.65 2.21 1 3.31s.58 1.89.88 2.84.7 2.19 1.06 3.28.62 1.87.94 2.8c.38 1.09.76 2.18 1.15 3.27.33.91.65 1.83 1 2.74l1.24 3.27c.35.89.69 1.79 1 2.68.44 1.09.89 2.19 1.34 3.28.36.86.71 1.73 1.08 2.59.47 1.12 1 2.22 1.45 3.33.37.82.73 1.65 1.1 2.47.52 1.16 1.07 2.3 1.6 3.44l1.08 2.3c.61 1.26 1.24 2.5 1.87 3.75.32.63.62 1.27.95 1.9q2.88 5.61 6 11.07c.29.47.66 1.08 1.02 1.69Z" fill="#f3ab98"/><path d="M233.25 500c0-147.32 119.43-266.75 266.75-266.75S766.75 352.68 766.75 500a266.22 266.22 0 0 1-98.65 207.12q-8.21 6.68-16.94 12.69C591 758 515 758 446.39 751.89c-6.66-1-13.3-2.26-19.89-3.71-26.33-5.8-51.82-14.75-75.37-27.8q-8.73-5.38-16.93-11.62a199.59 199.59 0 0 1-15.8-13.38q-7.14-6.63-13.79-13.78A265.86 265.86 0 0 1 233.25 500Z" fill="none" stroke="#592d3d" stroke-miterlimit="10" stroke-width="12"/><path d="M386.12 758.72c-90.77 0-72 114.24-72.87 241.28h72.87Z" fill="#fdd2b2"/><path d="M367.23 831.87 390 870l-11.39 130h-31.73c-.81-180.27 20.35-168.13 20.35-168.13Z" fill="#f3ab98"/><path d="M619.47 1070H380.53a13.28 13.28 0 0 1-13.27-13.28V772a13.28 13.28 0 0 1 13.27-13.28h233.23c13.09 0 19 7.66 19 19.88v278.08a13.28 13.28 0 0 1-13.29 13.32Z" fill="#fdd2b2"/><path d="M629.05 766.62a19.33 19.33 0 0 1-2.51-4 17.25 17.25 0 0 0-8.28-3.51 28.88 28.88 0 0 0-4.5-.34H380.53A13.28 13.28 0 0 0 367.26 772c29 10.42 83.29 16.24 132.74 16.24 63.06 0 104.38-9.35 129.05-21.62Z" fill="#f3ab98"/><path d="M610 758.72c90.76 0 72 114.24 72.87 241.28h-50.13M386.12 758.72c-90.77 0-72 114.24-72.87 241.28h50.07" fill="none" stroke="#592d3d" stroke-linecap="square" stroke-miterlimit="10" stroke-width="12"/><path d="m380.53 758.82 233.23-.1" fill="none" stroke="#592d3d" stroke-miterlimit="10" stroke-width="12"/><path d="M380.53 1070h116.62C388 1070 396.24 838.82 367.26 838.82v217.86a13.28 13.28 0 0 0 13.27 13.32Z" fill="#f3ab98"/><path d="M361.26 860.85c-.19-3.67-.11-7.34.05-11s.47-7.35.86-11c.2-1.84.4-3.67.65-5.51s.49-3.67.85-5.51a44.18 44.18 0 0 1 3.59-11 44.18 44.18 0 0 1 3.59 11c.36 1.84.62 3.67.85 5.51s.45 3.67.65 5.51c.38 3.67.68 7.34.85 11s.25 7.34.06 11Z" fill="#592d3d"/><path d="M632.74 870v8c.26 34 .26 69 0 102.75v75.94a13.28 13.28 0 0 1-13.27 13.31H380.53a13.28 13.28 0 0 1-13.27-13.28v-65.85c-.25-34.87-.25-69.87 0-105.3v-24.72" fill="none" stroke="#592d3d" stroke-miterlimit="10" stroke-width="12"/><path d="M626.74 870c-.19-4.17-.1-8.35.06-12.53s.47-8.35.85-12.53c.2-2.09.41-4.18.65-6.27s.49-4.17.85-6.26a55.09 55.09 0 0 1 3.59-12.53 55.09 55.09 0 0 1 3.59 12.53c.36 2.09.62 4.18.85 6.26s.45 4.18.65 6.27c.38 4.18.69 8.35.85 12.53s.25 8.36.06 12.53Zm-56.06-27.55C570.9 833 582.9 829 588.9 835a10.61 10.61 0 1 1-15.16 14.85 10.4 10.4 0 0 1-3.06-7.4Zm-162.57-.3C407.9 834 416.9 830 422.9 833c8 3 8 14 0 19-4 2-8 0-11.75-2.48a10.39 10.39 0 0 1-3.04-7.37Z" fill="#592d3d"/><path d="M500 831.77a27.13 27.13 0 0 1 1.5 5.84 42.47 42.47 0 0 1 .49 5.84l.3 11.69c.09 3.89.21 7.79.25 11.69l.17 11.67c.23 15.57.22 31.16.28 46.74s.18 31.16 0 46.74c-.09 7.79-.3 15.58-.53 23.37-.1 3.89-.29 7.79-.67 11.68a92.5 92.5 0 0 1-1.77 11.69 92.5 92.5 0 0 1-1.77-11.69c-.38-3.89-.57-7.79-.67-11.68-.23-7.79-.44-15.58-.53-23.37-.2-15.58 0-31.16 0-46.74s0-31.15.18-46.73l.17-11.7.33-11.68.33-11.68a44.11 44.11 0 0 1 .5-5.84 27.13 27.13 0 0 1 1.44-5.84Z" fill="#f3ab98"/><path d="M425.22 883a18.51 18.51 0 0 1 4.67-1.5 29.75 29.75 0 0 1 4.68-.5l9.35-.33 18.7-.41c12.46-.19 24.91-.24 37.38-.27s24.93-.16 37.39 0c6.23.09 12.46.3 18.7.53 3.11.11 6.23.3 9.34.67a61.34 61.34 0 0 1 9.35 1.78 59.17 59.17 0 0 1-9.35 1.77c-3.11.38-6.23.57-9.34.67-6.24.23-12.47.43-18.7.52-12.46.19-24.92 0-37.39 0s-24.93 0-37.4-.15c-6.23-.06-12.46-.26-18.68-.5l-9.35-.34a29.5 29.5 0 0 1-4.67-.5 18.45 18.45 0 0 1-4.68-1.44Zm17.19 31.38a12.51 12.51 0 0 1 3.74-1.11 18.35 18.35 0 0 1 3.62-.15c2.39.1 4.78.16 7.17.21 4.78.11 9.56.15 14.34.17 9.63 0 19.09.08 28.76-.21s19.26-.43 28.88-.39c4.81 0 9.62.13 14.42.24a70.37 70.37 0 0 1 7.23.47 38.17 38.17 0 0 1 7.27 1.53 36.56 36.56 0 0 1-7.16 2 61.08 61.08 0 0 1-7.21.86c-4.82.35-9.64.65-14.45.82-9.64.36-19.27.32-28.88.45-4.81 0-9.61.22-14.48.1s-9.69-.13-14.52-.31-9.68-.58-14.5-1.08c-2.42-.27-4.82-.57-7.23-.9a16.82 16.82 0 0 1-3.57-.84 11.51 11.51 0 0 1-3.43-1.86Zm-3.48 35.49a13.07 13.07 0 0 1 3.82-1.5 19.13 19.13 0 0 1 3.82-.49l7.63-.32c5.09-.18 10.19-.33 15.28-.41 10.18-.15 20.36-.15 30.52-.15s20.36-.17 30.54 0c5.09.09 10.18.3 15.27.53a72.73 72.73 0 0 1 7.63.66 41.2 41.2 0 0 1 7.66 1.81 41.25 41.25 0 0 1-7.63 1.77 70.34 70.34 0 0 1-7.64.67c-5.09.23-10.18.44-15.27.53-10.18.2-20.37.06-30.55 0s-20.36-.06-30.54-.25c-5.09-.1-10.19-.28-15.28-.49l-7.63-.37a19.33 19.33 0 0 1-3.82-.5 12.85 12.85 0 0 1-3.81-1.49Zm108.92-101.89-42.13-34.37 74.63-54.79h-160.7l74.63 54.79-42.13 34.37-37.63-56.5v78.48h174.26v-83.44l-40.93 61.46z" fill="#f3ab98"/><path d="m616.66 758.16-42.73.1a119.49 119.49 0 0 1-1.43 13.48 63.7 63.7 0 0 1-1.74 6.34c-2.34 6.49-17.26 12-21.49 16.73a48.22 48.22 0 0 1-4.5 4.43c-25.17 18.2-65.17 19.2-89.48-.58a51.36 51.36 0 0 1-7.11-7.61c-4.23-5.56-16.4-11.59-18.1-18.94a60 60 0 0 1-1.08-6.59 63.55 63.55 0 0 1-.36-6.8s-45.21-.56-45.21-.56a13.28 13.28 0 0 0-13.28 13.27v284.69a13.28 13.28 0 0 0 13.28 13.27h238.93a13.27 13.27 0 0 0 13.27-13.27V778c0-12.18-5.88-19.84-18.97-19.84Z" fill="#fff"/><path d="M612.84 758.16c63.54 0 88.52 43.39 78.9 272-18.74 6.7-55.91 4.59-55.91 4.59Z" fill="#fff"/><path fill="#E2E2E2" d="m451.06 855.4 48.45-24.09 48.58 24.09-37.06-43.02-43.89.83-16.08 42.19zm184.57-24.09s-22.79 84.54-19.31 234l33.21-31 3.58-137.58c-5.62-72.23-17.48-65.42-17.48-65.42Z"/><path d="M389 758.16c-61.78 0-88.88 56.45-80.75 245.48 22.42 9.91 56.19 5.58 56.19 5.58Z" fill="#fff"/><path d="M306.94 957.49q.26 20.46 1.21 43.48c15.27.73 43.69.88 57.11 0l4.18-42.81c-10.77-1.26-45.78-1.67-62.5-.67Z" fill="#E2E2E2"/><path d="m370.12 831.31-.5 177.69-13.35.9c-2.97-149.05 13.85-178.59 13.85-178.59Z" fill="#E2E2E2"/><path d="M612.84 758.16c67.42 0 78.45 56.28 78.9 133.78v138.22s-50 5.53-55.91 4.59l-.1-142.11M389 758.16c-25.73 0-43.52 8.12-55.71 22.44-19.45 22.87-24.63 61.54-25 108.27v123.77c12.06 3.32 61.36-3.64 61.36-3.64l.49-118.6" fill="none" stroke="#592d3d" stroke-linecap="square" stroke-miterlimit="10" stroke-width="12"/><path d="M372.6 1011.24c-1.83 2.61-73.77 1.92-74.67 0s-2.19-37.5 0-41c1.8-2.88 72.11-2.27 74.67 0s1.83 38.39 0 41Z" fill="#fff" stroke="#592d3d" stroke-linecap="square" stroke-miterlimit="10" stroke-width="12"/><path d="M383.43 1069.39H500c-109.19 0-100.91-231.14-129.89-231.14v217.87a13.28 13.28 0 0 0 13.32 13.27Z" fill="#E2E2E2"/><path d="M364.15 860.29c-.19-3.67-.11-7.35.06-11s.47-7.34.85-11c.2-1.83.41-3.67.65-5.51s.49-3.67.85-5.5a44.05 44.05 0 0 1 3.59-11 44.05 44.05 0 0 1 3.59 11c.36 1.83.62 3.67.85 5.5s.45 3.68.65 5.51q.58 5.52.86 11c.16 3.67.24 7.35 0 11Z" fill="#592d3d"/><path d="M635.63 869.4v8c.26 34 .26 69 0 102.76v75.94a13.27 13.27 0 0 1-13.27 13.27H383.43a13.28 13.28 0 0 1-13.28-13.27v-65.8c-.26-34.86-.26-69.86 0-105.3v-24.71" fill="none" stroke="#592d3d" stroke-miterlimit="10" stroke-width="12"/><path d="M697.42 970.24c2.22 2.26 1.59 38.39 0 41s-64 1.92-64.77 0-1.9-37.5 0-41c.27-.5 2.28-.89 5.45-1.18" fill="#fff" stroke="#592d3d" stroke-linecap="square" stroke-miterlimit="10" stroke-width="12"/><path d="M678.92 968.3c3.8.3 15-1.18 15.42-.76" fill="#fff"/><path d="M678.92 968.3a23.67 23.67 0 0 1 1.88-2.16 12.13 12.13 0 0 1 1.78-1.47 12.74 12.74 0 0 1 1.81-1c.61-.29 1.22-.54 1.83-.79a24.1 24.1 0 0 1 3.79-1.18 15.85 15.85 0 0 1 2-.31H694c.12 0 .44 0 .71.07h.35l.49.11.25.06.2.06.57.21a6.45 6.45 0 0 1 2 1.37l4.2 4.29-8.65 8.48-4.12-4.37a5.73 5.73 0 0 0 1.91 1.32c.18.08.36.14.54.2h.17l.19.05a2.34 2.34 0 0 0 .38.09h.41-2.72a26.27 26.27 0 0 1-3.92-.53c-.67-.15-1.34-.3-2-.49a12.56 12.56 0 0 1-2-.72 10 10 0 0 1-2.08-1.32 8.19 8.19 0 0 1-1.96-1.97Z" fill="#592d3d"/><path fill="#E2E2E2" d="m592.51 763.64-74.67 54.81 42.14 34.38 59.42-89.24-26.89.05z"/><path d="M629.63 869.4c-.19-4.18-.1-8.36.06-12.53s.47-8.36.86-12.53c.2-2.09.4-4.18.64-6.27s.49-4.18.86-6.27a54.83 54.83 0 0 1 3.58-12.53 54.37 54.37 0 0 1 3.59 12.53c.36 2.09.63 4.18.85 6.27s.45 4.18.65 6.27c.39 4.17.69 8.35.85 12.53s.26 8.35.06 12.53Z" fill="#592d3d"/><path d="m383.43 758.26 233.23-.1" fill="none" stroke="#592d3d" stroke-miterlimit="10" stroke-width="12"/><path fill="#E2E2E2" d="m529.39 835.55-22.35-22.34-22.34 22.34 10.98 10.98-9.72 106.63 20.74 16.17 21.42-16.17-9.71-106.63 10.98-10.98z"/><path fill="none" stroke="#592d3d" stroke-linecap="square" stroke-miterlimit="10" stroke-width="6" d="M500.04 813.21v256.18"/><path fill="#633749" d="m500.04 813.21 22.35 15.34-22.35 22.35-22.34-22.35 22.34-15.34z"/><path d="M419.62 758.8s43.27 39.34 74.66 54.81C479 838.82 452.15 848 452.15 848l-59.43-89.23Zm160.76 0S541 800 505.72 813.61c10 20.28 42.13 34.37 42.13 34.37l59.43-89.23Z" fill="#fff" stroke="#592d3d" stroke-miterlimit="10" stroke-width="12"/><g transform="translate(0 30)"/><path fill="#633749" d="m478.96 946.16 20.74 16.17 21.42-16.17-10-109.78h-22.16l-10 109.78z"/><path fill="none" stroke="#592d3d" stroke-miterlimit="10" stroke-width="8" d="m477.7 828.55 10.98 10.98-9.72 106.63 20.74 16.17 21.42-16.17-9.71-106.63 10.98-10.98"/><path d="M638.1 969.06c7.51-.71 21.51-.89 34-.67" fill="#fff"/><path d="M637.54 963.08a50.92 50.92 0 0 1 8.84-.47c2.9.07 5.78.3 8.66.65 1.43.18 2.87.37 4.3.61a43.36 43.36 0 0 1 4.29.85 27.53 27.53 0 0 1 8.5 3.67 30.13 30.13 0 0 1-8.52 3.5c-1.41.36-2.82.63-4.23.86s-2.81.47-4.21.69c-2.8.42-5.59.78-8.35 1s-5.52.5-8.16.54l-6 .1-1-11.13Z" fill="#592d3d"/><circle cx="515.77" cy="982.93" r="4.8" fill="#592d3d"/><path d="M490.89 836.19c-.05-.06 0 0 0 0l.07.05a.88.88 0 0 1 .17.12l.38.29c.25.21.52.42.78.65.53.45 1.09.93 1.7 1.39s1.27.9 2 1.42a27.37 27.37 0 0 1 2.71 2.33 5.61 5.61 0 0 1-3.13 2.43 9.41 9.41 0 0 1-3.7.27 11 11 0 0 1-3.63-1 9.72 9.72 0 0 1-1.65-1 8.85 8.85 0 0 1-.77-.63c-.12-.11-.25-.23-.37-.36l-.2-.21-.25-.29Z" fill="#592d3d"/><path d="M271.4 568.53c-1-28.36 18-52.36 43.28-63.56a62.37 62.37 0 0 1 8.16-2.7 70 70 0 0 1 42.21 2.73 71.67 71.67 0 0 1 8.93 4.16c29.53 15.89 42.79 53.25 31.36 83.46a61.68 61.68 0 0 1-4.18 8.82 54.68 54.68 0 0 1-17.51 20.83 69.25 69.25 0 0 1-7.85 5c-27.38 13-64.38 9-86.45-11.4a68.39 68.39 0 0 1-6.11-7.47 64.89 64.89 0 0 1-5.57-9.5 55.78 55.78 0 0 1-5.67-21.8 75.67 75.67 0 0 1-.6-8.57Z" fill="#f3ab98"/><path d="M269.77 550.18c-1-28.36 18-52.36 43.28-63.56a62.23 62.23 0 0 1 8.15-2.7 70 70 0 0 1 42.22 2.68 71.54 71.54 0 0 1 8.92 4.16c29.53 15.89 42.79 53.26 31.36 83.46a59.6 59.6 0 0 1-4.18 8.82 63.85 63.85 0 0 1-4.71 7.8 64.78 64.78 0 0 1-5.68 7 63.08 63.08 0 0 1-7.12 6.07 68.37 68.37 0 0 1-7.85 5c-27.38 13-64.38 9-86.44-11.39a68.28 68.28 0 0 1-6.11-7.48 65 65 0 0 1-5.58-9.5 55.59 55.59 0 0 1-5.71-21.73 71.3 71.3 0 0 1-.55-8.63Z" fill="#fff" stroke="#592d3d" stroke-miterlimit="10" stroke-width="12"/><circle cx="338.51" cy="550.79" r="12.24" fill="#592d3d"/><path d="M583.89 560.47c.43-15.13 6.67-30.09 15.1-41.33a72.82 72.82 0 0 1 7.12-8.53 69.73 69.73 0 0 1 90.17-8.95 73.27 73.27 0 0 1 6.53 5.13c27 21.45 30.12 63.14 15.32 93.23a62.31 62.31 0 0 1-4.78 6.86 72.09 72.09 0 0 1-7.58 8.13c-20.27 17.83-51.81 22.13-77.41 12.42a71.34 71.34 0 0 1-10.55-5c-17.9-10.78-30.37-31.09-33.43-52.23a62.93 62.93 0 0 1-.49-9.73Z" fill="#f3ab98"/><path d="M589.38 549c.42-14.15 6.42-28.15 14.52-38.66a70.56 70.56 0 0 1 6.86-8 68.55 68.55 0 0 1 86.77-8.34 69.81 69.81 0 0 1 6.28 4.79c26 20.07 29 59.07 14.74 87.22a56.5 56.5 0 0 1-4.6 6.42 68.91 68.91 0 0 1-7.29 7.6c-19.51 16.68-49.86 20.71-74.49 11.62A68.79 68.79 0 0 1 622 606.9c-17.22-10.08-29.22-29.08-32.17-48.85a56.34 56.34 0 0 1-.45-9.05Z" fill="#fff" stroke="#592d3d" stroke-miterlimit="10" stroke-width="12"/><circle cx="659.21" cy="550.79" r="12.24" fill="#592d3d"/><path d="M443.14 621.86c0-18.9 113.72-16.06 113.72 0a56.86 56.86 0 0 1-113.72 0Z" fill="#592d3d"/><path d="M495 643c-16.95-1-31.73 6.75-36.65 18.22a56.86 56.86 0 0 0 65.14 12.53 55.39 55.39 0 0 0 6.51-3.55c-.92-14.11-15.94-26.02-35-27.2Z" fill="#f28195"/><path d="M443.14 621.86c0-18.9 113.72-16.06 113.72 0a56.86 56.86 0 0 1-113.72 0Z" fill="none" stroke="#592d3d" stroke-miterlimit="10" stroke-width="6"/><path d="M478.12 632.46c.45-.11.63-.16.92-.21l.75-.14c.49-.09 1-.14 1.46-.18a21.54 21.54 0 0 1 2.89-.1 25 25 0 0 1 5.79.81 21.4 21.4 0 0 1 10.35 6.1 20.18 20.18 0 0 1 5.08 10.16 17.27 17.27 0 0 1-1.36 10.35c-2.07-2.93-3.66-5.56-5.32-7.76a28.41 28.41 0 0 0-2.45-3 14.06 14.06 0 0 0-2.7-2.16 15.48 15.48 0 0 0-6.11-2.09A29.5 29.5 0 0 0 484 644c-.59 0-1.18 0-1.76.05l-.85.06h-.62ZM500 233.25c-135.7 0-247.73 101.33-264.56 232.45a307.11 307.11 0 0 0 70.16-98.91A919.45 919.45 0 0 0 500 387.94a899.57 899.57 0 0 0 194.4-21.15 307.11 307.11 0 0 0 70.16 98.91C747.73 334.58 635.7 233.25 500 233.25Z" fill="#592d3d"/><path d="M305.6 366.79q15.94 3.45 32.07 6.35c10.61-35.4 27.23-73.88 51.13-115.66-1.33.62-2.66 1.24-4 1.87l-.17.08c-1.31.63-2.62 1.27-3.92 1.93l-.59.29c-1.22.61-2.44 1.24-3.65 1.88l-1 .53c-3.76 2-7.48 4.07-11.13 6.23l-.8.47-.14.09q-1.73 1-3.42 2.07l-.87.54q-5.36 3.35-10.55 6.93l-1.08.75c-1 .71-2 1.42-3 2.14l-.71.52-.15.1q-3.27 2.39-6.46 4.84l-.62.48c-1 .78-2 1.58-3 2.39l-1.17.94-2.41 2-.78.65c-2.05 1.71-4.06 3.45-6.06 5.22l-1.14 1-2.69 2.45L318 305q-4.28 4-8.37 8.17l-1 1c-.22.22-.43.44-.64.67-.7.72-1.39 1.44-2.08 2.17-.46.49-.92 1-1.37 1.48q-2.06 2.2-4.06 4.46l-.48.55c-.31.35-.63.7-.94 1.06L297 327c-.11.14-.22.27-.34.4l-1.2 1.43c-.61.72-1.21 1.45-1.81 2.18-.39.47-.78 1-1.17 1.44l-.66.82q-1.59 2-3.13 4l-.07.09c-.53.68-1.05 1.36-1.57 2.05-.4.52-.79 1.05-1.17 1.57l-1 1.33-1.22 1.68-1 1.35-1.41 2c-.57.81-1.13 1.62-1.69 2.44s-1.11 1.64-1.65 2.46l-.25.36-1.52 2.31-1.74 2.72c-.52.83-1 1.66-1.55 2.49-.57.92-1.14 1.84-1.7 2.77s-1 1.68-1.48 2.52-.92 1.56-1.36 2.34l-.57 1-1.13 2c-.42.77-.85 1.53-1.26 2.3-.14.25-.28.5-.41.75-.42.78-.84 1.57-1.25 2.36s-.68 1.29-1 1.94l-.84 1.63-.93 1.88c-.39.78-.78 1.55-1.16 2.34l-.82 1.71-.3.65c-.44.92-.87 1.85-1.3 2.78l-.72 1.59c-.41.91-.81 1.83-1.21 2.75l-1 2.34c-.45 1.07-.88 2.14-1.32 3.21-.32.77-.63 1.53-.94 2.3-.11.26-.21.53-.31.8-.35.88-.69 1.77-1 2.66s-.61 1.57-.9 2.36l-.16.43c-.38 1-.74 2-1.1 3.06s-.64 1.79-1 2.69c-.37 1.08-.73 2.15-1.08 3.23-.3.91-.6 1.82-.89 2.73-.35 1.09-.68 2.17-1 3.26-.28.92-.55 1.84-.82 2.77-.32 1.09-.64 2.19-.94 3.29-.26.92-.51 1.85-.75 2.78-.3 1.11-.59 2.22-.87 3.34-.24.92-.46 1.86-.68 2.79-.27 1.12-.54 2.25-.8 3.37-.21.93-.41 1.87-.61 2.8-.24 1.14-.49 2.29-.73 3.44-.18.91-.35 1.82-.52 2.74s-.39 2-.57 3l-.18 1-.33 2c-.18 1.09-.37 2.19-.54 3.29 0 .21-.07.42-.1.63q-.45 3-.84 6a307.11 307.11 0 0 0 70.17-98.95Z" fill="#592d3d"/><path d="M500 233.25c-135.7 0-247.73 101.33-264.56 232.45a307.11 307.11 0 0 0 70.16-98.91A919.45 919.45 0 0 0 500 387.94a899.57 899.57 0 0 0 194.4-21.15 307.11 307.11 0 0 0 70.16 98.91C747.73 334.58 635.7 233.25 500 233.25Z" fill="none" stroke="#592d3d" stroke-miterlimit="10" stroke-width="12"/><path d="M506.21 250.1c-12.57 1.68-24.94 3.38-37.16 5.76s-24.29 5.18-36.18 8.64-23.62 7.48-35.18 12.07-22.95 9.73-34.46 15.05a170 170 0 0 1 31.87-20.78 204.11 204.11 0 0 1 73.07-21.19 172.76 172.76 0 0 1 38.04.45Z" fill="#fff"/><path d="M600.89 460.57a318.14 318.14 0 0 1 33.51-6.65l-2.66.35c13.18-1.74 26.54-2.25 39.75-.48l-2.66-.36c3.27.46 6.54 1 9.82 1.42l-2.66-.36a221 221 0 0 1 29.48 6.11c5 1.39 11.1-1.73 12.3-7a10.19 10.19 0 0 0-7-12.3 239.21 239.21 0 0 0-34.59-6.78l2.66.36a143 143 0 0 0-33.44-1.95 235.08 235.08 0 0 0-33.09 4.55c-5.62 1.13-11.2 2.43-16.76 3.8-5.08 1.25-8.62 7.26-7 12.3a10.19 10.19 0 0 0 12.3 7Zm-314.75.03a202.56 202.56 0 0 1 29.25-6.19l-2.66.36a195.53 195.53 0 0 1 51.38.08l-2.66-.35a218.94 218.94 0 0 1 29.45 6.1c5 1.4 11.1-1.73 12.3-7a10.19 10.19 0 0 0-7-12.3 227.26 227.26 0 0 0-44.2-7.7 208.27 208.27 0 0 0-71.22 7.71 10.39 10.39 0 0 0-6 4.6 10.2 10.2 0 0 0-1 7.7c1.65 5.11 6.91 8.54 12.3 7Z" fill="#592d3d"/><circle cx="338.9" cy="548.55" r="93.31" fill="#fff" opacity=".2"/><path d="M744.47 606.82a103.27 103.27 0 0 1-188.33-51.49c-37-14.6-74.43-14.47-114.19.39a103.43 103.43 0 0 1-103 96.13c-32.48 0-76-36.5-71-28.39 14 20.69 47 36.45 72.54 36.45 54.55 0 97.87-39.29 101.56-92.92 39.76-14.85 77.23-15 114.19-.39 3.5 53.82 48.39 93.53 103.07 93.53 44.69 0 70.09-34.13 85.16-53.31Z" opacity=".15"/><path d="m320 648.75 123.07-123.08a93.05 93.05 0 0 0-10-17.27L302.72 638.76a93.1 93.1 0 0 0 17.28 9.99Z" fill="#fff" opacity=".4"/><circle cx="338.9" cy="548.55" r="93.31" fill="none" stroke="#592d3d" stroke-miterlimit="10" stroke-width="20"/><circle cx="659.21" cy="548.55" r="93.31" fill="none" stroke="#592d3d" stroke-miterlimit="10" stroke-width="20"/><path d="M432.77 548.55c45.2-18.31 89.61-19 133.14 0" fill="none" stroke="#592d3d" stroke-miterlimit="10" stroke-width="20"/><path d="M314.7 492.5c2.06 6.5-5.94 11.5-11.94 12.5-6 0-10-4-12-9-1-5 0-10 4-13 5-2 12-4 16.45 1.13a11.66 11.66 0 0 1 3.49 8.37Zm10.67-3.83c-.61 4.33-6.61 4.33-7.61.33 0-3 1-4 3.85-4.1a3.76 3.76 0 0 1 3.76 3.77Z" fill="#fff"/><circle cx="659.21" cy="548.55" r="93.31" fill="#fff" opacity=".2"/><path d="m645.19 640.81 106.28-106.29a94.74 94.74 0 0 0-2.41-11.22L634 638.4a94.31 94.31 0 0 0 11.19 2.41Z" fill="#fff" opacity=".4"/><circle cx="659.21" cy="548.55" r="93.31" fill="none" stroke="#592d3d" stroke-miterlimit="10" stroke-width="20"/><path d="M635 492.5c2.06 6.5-5.94 11.5-11.94 12.5-6 0-10-4-12-9-1-5 0-10 4-13 5-2 12-4 16.45 1.13a11.7 11.7 0 0 1 3.49 8.37Zm10.69-3.83c-.61 4.33-6.61 4.33-7.61.33 0-3 1-4 3.84-4.1a3.77 3.77 0 0 1 3.77 3.77Z" fill="#fff"/></g></svg>